<svg xmlns="http://www.w3.org/2000/svg" viewBox="0 0 100 100">
  <rect width="100" height="100" rx="20" fill="#0ea5e9"/>
  <!-- Open book -->
  <path d="M50 30 L50 75" stroke="white" stroke-width="2.5" stroke-linecap="round"/>
  <path d="M50 30 C45 28 35 25 22 28 L22 70 C35 67 45 70 50 73" fill="white" fill-opacity="0.9"/>
  <path d="M50 30 C55 28 65 25 78 28 L78 70 C65 67 55 70 50 73" fill="white" fill-opacity="0.7"/>
  <!-- Page lines left -->
  <line x1="28" y1="38" x2="44" y2="36" stroke="#0ea5e9" stroke-width="1.5" stroke-linecap="round"/>
  <line x1="28" y1="46" x2="44" y2="44" stroke="#0ea5e9" stroke-width="1.5" stroke-linecap="round"/>
  <line x1="28" y1="54" x2="44" y2="52" stroke="#0ea5e9" stroke-width="1.5" stroke-linecap="round"/>
  <!-- Star accent -->
  <path d="M70 22 L72 27 L77 27 L73 30 L74.5 35 L70 32 L65.5 35 L67 30 L63 27 L68 27 Z" fill="#facc15"/>
</svg>
